<svg width="160" height="160" viewBox="0 0 160 160" fill="none" xmlns="http://www.w3.org/2000/svg">
  <!-- Kritano AI Chip Logo — for dark backgrounds -->
  <rect x="20" y="20" width="120" height="120" rx="20" fill="#6366f1"/>
  <!-- Connector pins -->
  <rect x="50" y="8" width="8" height="16" rx="2" fill="#6366f1"/>
  <rect x="70" y="8" width="8" height="16" rx="2" fill="#6366f1"/>
  <rect x="90" y="8" width="8" height="16" rx="2" fill="#6366f1"/>
  <rect x="50" y="136" width="8" height="16" rx="2" fill="#6366f1"/>
  <rect x="70" y="136" width="8" height="16" rx="2" fill="#6366f1"/>
  <rect x="90" y="136" width="8" height="16" rx="2" fill="#6366f1"/>
  <rect x="8" y="50" width="16" height="8" rx="2" fill="#6366f1"/>
  <rect x="8" y="70" width="16" height="8" rx="2" fill="#6366f1"/>
  <rect x="8" y="90" width="16" height="8" rx="2" fill="#6366f1"/>
  <rect x="136" y="50" width="16" height="8" rx="2" fill="#6366f1"/>
  <rect x="136" y="70" width="16" height="8" rx="2" fill="#6366f1"/>
  <rect x="136" y="90" width="16" height="8" rx="2" fill="#6366f1"/>
  <!-- Inner chip surface -->
  <rect x="32" y="32" width="96" height="96" rx="12" fill="#4f46e5"/>
  <!-- Structure lines -->
  <rect x="42" y="50" width="76" height="2" rx="1" fill="#818cf8" opacity="0.4"/>
  <rect x="42" y="62" width="76" height="2" rx="1" fill="#818cf8" opacity="0.3"/>
  <rect x="42" y="96" width="76" height="2" rx="1" fill="#818cf8" opacity="0.3"/>
  <rect x="42" y="108" width="76" height="2" rx="1" fill="#818cf8" opacity="0.4"/>
  <!-- K letterform -->
  <path d="M58 46 L58 114 L70 114 L70 86 L94 114 L110 114 L82 82 L108 46 L92 46 L70 76 L70 46 Z" fill="white"/>
  <!-- Amber insight spark -->
  <circle cx="108" cy="44" r="6" fill="#fbbf24"/>
</svg>
